<svg xmlns="http://www.w3.org/2000/svg" height="48" width="48" viewBox="0 0 48 48"><title>present</title><g stroke-linecap="square" stroke-width="1" stroke-miterlimit="10" fill="none" stroke="white" stroke-linejoin="miter" class="nc-icon-wrapper" transform="translate(0.5 0.5)"><path d="M42,26V41a4,4,0,0,1-4,4H10a4,4,0,0,1-4-4V26"></path><rect x="2" y="12.003" width="44" height="8"></rect><polyline points="28 12.003 28 45 20 45 20 12.003" stroke="white"></polyline><path d="M8,7a5.174,5.174,0,0,1,5.334-5C21.222,2,24,12,24,12H13.334A5.175,5.175,0,0,1,8,7Z" stroke="white"></path><path d="M34.666,12H24S26.778,2,34.666,2A5.174,5.174,0,0,1,40,7,5.175,5.175,0,0,1,34.666,12Z" stroke="white"></path></g></svg>
